<svg xmlns="http://www.w3.org/2000/svg" width="444" height="162" viewBox="0 0 444 162">
  <defs>
    <linearGradient id="lavGrad_lk_morke_bakgrunn" x1="0%" y1="0%" x2="100%" y2="100%">
      <stop offset="0%" stop-color="#D0CBE8"/>
      <stop offset="50%" stop-color="#BDB8E4"/>
      <stop offset="100%" stop-color="#9B95CC"/>
    </linearGradient>
    <linearGradient id="coralGrad_lk_morke_bakgrunn" x1="0%" y1="0%" x2="100%" y2="100%">
      <stop offset="0%" stop-color="#FF8E8E"/>
      <stop offset="50%" stop-color="#FF6B6B"/>
      <stop offset="100%" stop-color="#E85555"/>
    </linearGradient>
  </defs>
  <g>
    <path d="M 70.70 84.47 L 70.56 84.05 L 70.37 83.63 L 70.15 83.22 L 69.89 82.80 L 69.59 82.40 L 69.25 81.99 L 68.88 81.59 L 68.47 81.19 L 68.03 80.80 L 67.56 80.40 L 67.06 80.01 L 66.53 79.63 L 65.97 79.24 L 65.39 78.86 L 64.78 78.48 L 64.14 78.10 L 63.48 77.73 L 62.80 77.35 L 62.10 76.98 L 61.38 76.61 L 60.64 76.24 L 59.89 75.87 L 59.12 75.50 L 58.34 75.13 L 57.54 74.76 L 56.73 74.40 L 55.92 74.03 L 55.09 73.66 L 54.26 73.29 L 53.42 72.92 L 52.58 72.55 L 51.73 72.18 L 50.88 71.81 L 50.03 71.44 L 49.18 71.06 L 48.33 70.69 L 47.49 70.31 L 46.65 69.93 L 45.82 69.55 L 44.99 69.16 L 44.18 68.77 L 43.37 68.38 L 42.57 67.99 L 41.79 67.59 L 41.02 67.19 L 40.26 66.79 L 39.53 66.38 L 38.81 65.97 L 38.10 65.55 L 37.42 65.13 L 36.76 64.71 L 36.13 64.28 L 35.52 63.85 L 34.93 63.41 L 34.37 62.97 L 33.84 62.52 L 33.34 62.07 L 32.87 61.62 L 32.43 61.16 L 32.02 60.69 L 31.65 60.22 L 31.31 59.75 L 31.01 59.27 L 30.75 58.78 L 30.52 58.29 L 30.34 57.80 L 30.19 57.30 L 30.09 56.80 L 30.09 79.01 L 30.19 79.42 L 30.34 79.83 L 30.52 80.23 L 30.75 80.63 L 31.01 81.03 L 31.31 81.42 L 31.65 81.81 L 32.02 82.20 L 32.43 82.58 L 32.87 82.97 L 33.34 83.35 L 33.84 83.72 L 34.37 84.10 L 34.93 84.47 L 35.52 84.84 L 36.13 85.21 L 36.76 85.58 L 37.42 85.95 L 38.10 86.31 L 38.81 86.68 L 39.53 87.04 L 40.26 87.41 L 41.02 87.77 L 41.79 88.13 L 42.57 88.49 L 43.37 88.85 L 44.18 89.22 L 44.99 89.58 L 45.82 89.95 L 46.65 90.31 L 47.49 90.68 L 48.33 91.04 L 49.18 91.41 L 50.03 91.79 L 50.88 92.16 L 51.73 92.53 L 52.58 92.91 L 53.42 93.29 L 54.26 93.67 L 55.09 94.06 L 55.92 94.45 L 56.73 94.84 L 57.54 95.24 L 58.34 95.64 L 59.12 96.04 L 59.89 96.45 L 60.64 96.86 L 61.38 97.27 L 62.10 97.69 L 62.80 98.11 L 63.48 98.54 L 64.14 98.98 L 64.78 99.41 L 65.39 99.86 L 65.97 100.31 L 66.53 100.76 L 67.06 101.22 L 67.56 101.68 L 68.03 102.15 L 68.47 102.62 L 68.88 103.10 L 69.25 103.58 L 69.59 104.07 L 69.89 104.57 L 70.15 105.07 L 70.37 105.57 L 70.56 106.08 L 70.70 106.59 Z" fill="url(#coralGrad_lk_morke_bakgrunn)"/>
    <path d="M 70.80 34.44 L 70.70 39.58 L 70.70 39.58 L 70.80 45.19 Z" fill="url(#coralGrad_lk_morke_bakgrunn)"/>
    <path d="M 30.09 56.80 L 30.02 56.29 L 30.00 55.78 L 30.02 55.27 L 30.09 54.75 L 30.19 54.23 L 30.35 53.70 L 30.54 53.17 L 30.78 52.64 L 31.07 52.11 L 31.40 51.57 L 31.77 51.04 L 32.19 50.50 L 32.65 49.96 L 33.15 49.42 L 33.69 48.88 L 34.28 48.34 L 34.90 47.80 L 35.56 47.27 L 36.26 46.73 L 37.00 46.20 L 37.77 45.67 L 38.57 45.14 L 39.40 44.61 L 40.27 44.09 L 41.15 43.58 L 42.07 43.06 L 43.00 42.56 L 43.96 42.06 L 44.93 41.56 L 45.92 41.08 L 46.92 40.60 L 47.92 40.13 L 48.94 39.66 L 49.96 39.20 L 50.98 38.76 L 52.00 38.32 L 53.02 37.89 L 54.02 37.46 L 55.02 37.05 L 56.01 36.65 L 56.98 36.26 L 57.94 35.88 L 58.87 35.50 L 59.78 35.14 L 60.67 34.79 L 61.53 34.44 L 62.36 34.11 L 63.16 33.79 L 63.93 33.47 L 64.66 33.17 L 65.36 32.87 L 66.02 32.58 L 66.65 32.30 L 67.23 32.03 L 67.77 31.77 L 68.27 31.52 L 68.73 31.27 L 69.14 31.03 L 69.51 30.79 L 69.84 30.56 L 70.12 30.34 L 70.36 30.12 L 70.55 30.00 L 70.70 30.06 L 70.81 30.32 L 70.87 30.80 L 70.89 31.56 L 70.87 32.68 L 70.80 34.44 L 70.80 45.19 L 70.87 47.43 L 70.89 49.04 L 70.87 50.28 L 70.81 51.26 L 70.70 52.02 L 70.55 52.59 L 70.36 52.99 L 70.12 53.30 L 69.84 53.61 L 69.51 53.93 L 69.14 54.26 L 68.73 54.59 L 68.27 54.92 L 67.77 55.26 L 67.23 55.60 L 66.65 55.96 L 66.02 56.31 L 65.36 56.67 L 64.66 57.04 L 63.93 57.41 L 63.16 57.79 L 62.36 58.18 L 61.53 58.57 L 60.67 58.96 L 59.78 59.37 L 58.87 59.77 L 57.94 60.19 L 56.98 60.60 L 56.01 61.03 L 55.02 61.45 L 54.02 61.89 L 53.02 62.32 L 52.00 62.76 L 50.98 63.21 L 49.96 63.66 L 48.94 64.11 L 47.92 64.56 L 46.92 65.02 L 45.92 65.48 L 44.93 65.94 L 43.96 66.40 L 43.00 66.87 L 42.07 67.34 L 41.15 67.80 L 40.27 68.27 L 39.40 68.74 L 38.57 69.21 L 37.77 69.68 L 37.00 70.14 L 36.26 70.61 L 35.56 71.07 L 34.90 71.54 L 34.28 72.00 L 33.69 72.46 L 33.15 72.92 L 32.65 73.37 L 32.19 73.82 L 31.77 74.27 L 31.40 74.72 L 31.07 75.16 L 30.78 75.60 L 30.54 76.04 L 30.35 76.48 L 30.19 76.91 L 30.09 77.33 L 30.02 77.76 L 30.00 78.18 L 30.02 78.60 L 30.09 79.01 Z" fill="url(#lavGrad_lk_morke_bakgrunn)"/>
    <path d="M 30.76 122.20 L 31.05 116.37 L 31.37 114.04 L 31.74 112.36 L 32.16 111.06 L 32.61 110.03 L 33.11 109.23 L 33.65 108.61 L 34.23 108.18 L 34.86 107.84 L 35.52 107.49 L 36.21 107.14 L 36.95 106.77 L 37.71 106.41 L 38.51 106.03 L 39.35 105.65 L 40.21 105.26 L 41.09 104.87 L 42.00 104.47 L 42.94 104.06 L 43.89 103.65 L 44.86 103.23 L 45.85 102.81 L 46.85 102.38 L 47.86 101.95 L 48.87 101.51 L 49.89 101.07 L 50.91 100.62 L 51.93 100.17 L 52.95 99.71 L 53.96 99.25 L 54.95 98.79 L 55.94 98.32 L 56.91 97.85 L 57.87 97.38 L 58.81 96.91 L 59.72 96.43 L 60.61 95.96 L 61.47 95.48 L 62.30 95.00 L 63.11 94.53 L 63.88 94.05 L 64.62 93.57 L 65.32 93.10 L 65.98 92.62 L 66.60 92.15 L 67.19 91.67 L 67.73 91.20 L 68.24 90.73 L 68.70 90.27 L 69.11 89.80 L 69.49 89.34 L 69.82 88.88 L 70.10 88.43 L 70.35 87.97 L 70.54 87.52 L 70.70 87.08 L 70.80 86.63 L 70.87 86.19 L 70.89 85.76 L 70.87 85.32 L 70.81 84.90 L 70.70 84.47 L 70.70 106.59 L 70.81 107.11 L 70.87 107.63 L 70.89 108.16 L 70.87 108.69 L 70.80 109.22 L 70.70 109.76 L 70.54 110.30 L 70.35 110.84 L 70.10 111.39 L 69.82 111.94 L 69.49 112.49 L 69.11 113.04 L 68.70 113.59 L 68.24 114.14 L 67.73 114.70 L 67.19 115.25 L 66.60 115.80 L 65.98 116.35 L 65.32 116.90 L 64.62 117.45 L 63.88 118.00 L 63.11 118.54 L 62.30 119.08 L 61.47 119.61 L 60.61 120.14 L 59.72 120.66 L 58.81 121.18 L 57.87 121.69 L 56.91 122.20 L 55.94 122.70 L 54.95 123.19 L 53.96 123.67 L 52.95 124.15 L 51.93 124.61 L 50.91 125.07 L 49.89 125.52 L 48.87 125.96 L 47.86 126.39 L 46.85 126.80 L 45.85 127.21 L 44.86 127.61 L 43.89 128.00 L 42.94 128.37 L 42.00 128.74 L 41.09 129.09 L 40.21 129.44 L 39.35 129.77 L 38.51 130.10 L 37.71 130.41 L 36.95 130.72 L 36.21 131.01 L 35.52 131.29 L 34.86 131.57 L 34.23 131.84 L 33.65 132.00 L 33.11 131.97 L 32.61 131.73 L 32.16 131.25 L 31.74 130.49 L 31.37 129.34 L 31.05 127.53 L 30.76 122.20 Z" fill="url(#lavGrad_lk_morke_bakgrunn)"/>
  </g>
  <g transform="translate(88.89 99.72)" fill="#F5F2EB">
    <g transform="translate(0.00 0) scale(0.05200 -0.05200)"><path d="M265 720Q318 720 346.0 708.0Q374 696 395 682Q407 675 414.5 671.5Q422 668 429 668Q439 668 443.5 679.0Q448 690 451 712H474Q473 694 471.5 669.5Q470 645 469.5 605.0Q469 565 469 500H446Q443 549 424.5 595.0Q406 641 370.5 670.0Q335 699 280 699Q229 699 195.5 668.5Q162 638 162 588Q162 544 184.0 514.5Q206 485 244.5 459.5Q283 434 332 403Q382 371 422.0 339.5Q462 308 485.0 270.0Q508 232 508 178Q508 113 477.5 70.5Q447 28 396.0 7.0Q345 -14 284 -14Q228 -14 195.0 -2.0Q162 10 139 23Q117 37 105 37Q95 37 90.5 26.0Q86 15 83 -7H60Q62 15 62.5 44.5Q63 74 63.5 122.0Q64 170 64 243H87Q91 181 109.5 127.0Q128 73 166.5 40.5Q205 8 269 8Q303 8 332.0 21.0Q361 34 379.0 62.0Q397 90 397 134Q397 175 377.5 206.0Q358 237 323.5 263.5Q289 290 243 318Q196 348 155.0 378.0Q114 408 89.5 448.0Q65 488 65 543Q65 604 93.5 643.0Q122 682 167.5 701.0Q213 720 265 720Z"/></g>
    <g transform="translate(32.24 0) scale(0.05200 -0.05200)"><path d="M609 708Q605 666 603.5 626.5Q602 587 602 566Q602 543 603.0 522.0Q604 501 605 486H582Q572 561 555.5 604.0Q539 647 508.0 666.0Q477 685 419 685H376V115Q376 75 383.5 55.0Q391 35 413.5 28.5Q436 22 479 20V0Q451 2 407.0 2.5Q363 3 317 3Q269 3 226.5 2.5Q184 2 158 0V20Q201 22 223.0 28.5Q245 35 253.0 55.0Q261 75 261 115V685H217Q161 685 129.0 666.0Q97 647 81.0 604.0Q65 561 55 486H32Q34 501 34.5 522.0Q35 543 35 566Q35 587 33.5 626.5Q32 666 28 708Q71 707 122.0 706.0Q173 705 225.0 705.0Q277 705 319 705Q361 705 412.0 705.0Q463 705 515.0 706.0Q567 707 609 708Z"/></g>
    <g transform="translate(68.74 0) scale(0.05200 -0.05200)"><path d="M39 708Q62 707 98.5 706.0Q135 705 171 705Q219 705 262.5 706.0Q306 707 324 707Q409 707 465.5 685.0Q522 663 549.5 623.5Q577 584 577 533Q577 502 564.5 467.5Q552 433 521.0 403.5Q490 374 437.0 355.0Q384 336 302 336H206V356H292Q359 356 394.5 378.5Q430 401 442.5 438.5Q455 476 455 522Q455 601 421.0 644.5Q387 688 303 688Q260 688 246.5 671.0Q233 654 233 602V106Q233 70 239.0 52.0Q245 34 262.0 28.0Q279 22 312 20V0Q288 2 251.5 2.5Q215 3 177 3Q135 3 98.5 2.5Q62 2 39 0V20Q73 22 90.0 28.0Q107 34 112.5 52.0Q118 70 118 106V602Q118 639 112.5 656.5Q107 674 89.5 680.5Q72 687 39 688ZM208 353Q259 351 290.0 348.5Q321 346 342.0 344.0Q363 342 381 339Q456 329 490.5 299.0Q525 269 538 207L563 105Q572 62 582.5 44.0Q593 26 614 26Q630 27 640.5 35.5Q651 44 663 59L677 48Q654 17 629.0 1.5Q604 -14 562 -14Q519 -14 488.5 8.5Q458 31 445 94L425 194Q416 237 405.0 268.5Q394 300 374.5 318.0Q355 336 318 336H210Z"/></g>
    <g transform="translate(106.60 0) scale(0.05200 -0.05200)"><path d="M338 712 582 84Q596 47 614.5 34.0Q633 21 649 20V0Q625 2 592.5 2.5Q560 3 527 3Q485 3 449.0 2.5Q413 2 391 0V20Q442 22 455.5 37.5Q469 53 449 104L269 590L285 608L119 174Q101 129 97.5 99.0Q94 69 102.5 52.0Q111 35 132.0 28.0Q153 21 184 20V0Q154 2 123.5 2.5Q93 3 66 3Q42 3 23.5 2.5Q5 2 -10 0V20Q11 25 32.0 45.0Q53 65 72 113L304 712Q312 712 321.0 712.0Q330 712 338 712ZM443 288V268H145L155 288Z"/></g>
    <g transform="translate(143.36 0) scale(0.05200 -0.05200)"><path d="M651 708V688Q631 683 608.5 661.0Q586 639 567 590L340 -4Q336 -4 332.0 -4.0Q328 -4 323 -4Q319 -4 315.0 -4.0Q311 -4 307 -4L59 624Q44 661 26.0 674.0Q8 687 -8 688V708Q15 707 48.5 706.0Q82 705 114 705Q155 705 191.5 706.0Q228 707 250 708V688Q217 687 199.0 680.0Q181 673 179.5 655.5Q178 638 191 604L376 121L358 101L520 527Q543 588 543.0 622.5Q543 657 521.0 672.0Q499 687 457 688V708Q488 707 518.0 706.0Q548 705 575 705Q600 705 618.0 706.0Q636 707 651 708Z"/></g>
    <g transform="translate(180.18 0) scale(0.05200 -0.05200)"><path d="M550 708Q546 670 544.5 634.5Q543 599 543 580Q543 561 544.0 544.0Q545 527 546 516H523Q516 580 501.5 617.0Q487 654 458.5 669.5Q430 685 379 685H310Q278 685 261.5 679.5Q245 674 239.0 657.5Q233 641 233 606V102Q233 68 239.0 51.0Q245 34 261.5 28.5Q278 23 310 23H375Q432 23 465.5 41.0Q499 59 516.5 100.0Q534 141 543 212H566Q563 183 563 136Q563 116 564.5 78.0Q566 40 570 0Q519 2 455.0 2.5Q391 3 341 3Q318 3 282.0 3.0Q246 3 204.5 2.5Q163 2 120.5 1.5Q78 1 39 0V20Q73 22 90.0 28.0Q107 34 112.5 52.0Q118 70 118 106V602Q118 639 112.5 656.5Q107 674 89.5 680.5Q72 687 39 688V708Q78 707 120.5 706.5Q163 706 204.5 705.5Q246 705 282.0 705.0Q318 705 341 705Q387 705 445.5 705.5Q504 706 550 708ZM384 366Q384 366 384.0 356.0Q384 346 384 346H203Q203 346 203.0 356.0Q203 366 203 366ZM413 498Q409 441 409.5 411.0Q410 381 410 356Q410 331 411.0 301.0Q412 271 416 214H393Q388 247 380.0 277.5Q372 308 351.5 327.0Q331 346 288 346V366Q320 366 338.5 379.0Q357 392 367.0 413.0Q377 434 381.5 456.5Q386 479 390 498Z"/></g>
    <g transform="translate(215.64 0) scale(0.05200 -0.05200)"><path d="M39 708Q62 707 98.5 706.0Q135 705 171 705Q219 705 262.5 706.0Q306 707 324 707Q409 707 465.5 685.0Q522 663 549.5 623.5Q577 584 577 533Q577 502 564.5 467.5Q552 433 521.0 403.5Q490 374 437.0 355.0Q384 336 302 336H206V356H292Q359 356 394.5 378.5Q430 401 442.5 438.5Q455 476 455 522Q455 601 421.0 644.5Q387 688 303 688Q260 688 246.5 671.0Q233 654 233 602V106Q233 70 239.0 52.0Q245 34 262.0 28.0Q279 22 312 20V0Q288 2 251.5 2.5Q215 3 177 3Q135 3 98.5 2.5Q62 2 39 0V20Q73 22 90.0 28.0Q107 34 112.5 52.0Q118 70 118 106V602Q118 639 112.5 656.5Q107 674 89.5 680.5Q72 687 39 688ZM208 353Q259 351 290.0 348.5Q321 346 342.0 344.0Q363 342 381 339Q456 329 490.5 299.0Q525 269 538 207L563 105Q572 62 582.5 44.0Q593 26 614 26Q630 27 640.5 35.5Q651 44 663 59L677 48Q654 17 629.0 1.5Q604 -14 562 -14Q519 -14 488.5 8.5Q458 31 445 94L425 194Q416 237 405.0 268.5Q394 300 374.5 318.0Q355 336 318 336H210Z"/></g>
    <g transform="translate(253.50 0) scale(0.05200 -0.05200)"><path d="M265 720Q318 720 346.0 708.0Q374 696 395 682Q407 675 414.5 671.5Q422 668 429 668Q439 668 443.5 679.0Q448 690 451 712H474Q473 694 471.5 669.5Q470 645 469.5 605.0Q469 565 469 500H446Q443 549 424.5 595.0Q406 641 370.5 670.0Q335 699 280 699Q229 699 195.5 668.5Q162 638 162 588Q162 544 184.0 514.5Q206 485 244.5 459.5Q283 434 332 403Q382 371 422.0 339.5Q462 308 485.0 270.0Q508 232 508 178Q508 113 477.5 70.5Q447 28 396.0 7.0Q345 -14 284 -14Q228 -14 195.0 -2.0Q162 10 139 23Q117 37 105 37Q95 37 90.5 26.0Q86 15 83 -7H60Q62 15 62.5 44.5Q63 74 63.5 122.0Q64 170 64 243H87Q91 181 109.5 127.0Q128 73 166.5 40.5Q205 8 269 8Q303 8 332.0 21.0Q361 34 379.0 62.0Q397 90 397 134Q397 175 377.5 206.0Q358 237 323.5 263.5Q289 290 243 318Q196 348 155.0 378.0Q114 408 89.5 448.0Q65 488 65 543Q65 604 93.5 643.0Q122 682 167.5 701.0Q213 720 265 720Z"/></g>
    <g transform="translate(285.74 0) scale(0.05200 -0.05200)"><path d="M380 722Q478 722 552.5 679.0Q627 636 668.0 555.5Q709 475 709 360Q709 248 667.0 164.0Q625 80 550.0 33.0Q475 -14 379 -14Q280 -14 206.0 29.0Q132 72 91.0 153.0Q50 234 50 348Q50 460 92.5 544.0Q135 628 209.0 675.0Q283 722 380 722ZM376 704Q314 704 268.0 659.0Q222 614 197.0 535.0Q172 456 172 352Q172 246 200.0 167.5Q228 89 276.0 46.5Q324 4 383 4Q445 4 490.5 49.0Q536 94 561.5 173.5Q587 253 587 356Q587 463 558.5 541.0Q530 619 482.5 661.5Q435 704 376 704Z"/></g>
  </g>
</svg>
